<svg width="40" height="40" viewBox="0 0 40 40" fill="none" xmlns="http://www.w3.org/2000/svg">
<path d="M21.0234 1.59845C20.5 3.14142 19.4844 4.83204 20.7109 5.53907C23.7266 7.26095 27.0703 8.78126 29.0078 12.625C31.9297 18.4141 32.8367 32.1875 37.6711 35.2344C33.8742 35.5313 30.6641 33.9609 29.1641 31.7813C28.6094 34.4609 26.6172 37.0156 24.2422 38.3984C24.6484 36.1328 24.3828 33.7578 22.7578 31.1719C21.4687 32.961 20.3281 35.8047 16.9922 37.0547C18.2734 34.9063 18.0625 32.9297 17.8281 30.4766C17.1406 32.5781 14.8203 34.3828 12.1328 35.0781C13.4453 33.625 14 31.5235 13.7734 29.9219C12.6328 31.8672 10.3828 32.9219 8.53124 33.0235C20.5078 18.9922 12.3359 10.2422 2.32811 17.8359C2.36718 13.9531 4.78124 12.625 7.57812 10.3594C7.64843 9.15626 8.32812 8.07032 8.9453 6.97189C13.1406 6.19142 18.4375 3.68986 21.0234 1.59845ZM14.6797 7.44845C12.6406 8.29689 11.0703 9.21095 10.2734 10.2188C11.5703 9.93751 13.3828 9.94532 15.7422 10.1328C14.5703 9.37501 14.4531 8.43751 14.6797 7.44845Z" fill="url(#paint0_linear_1_9)"/>
<defs>
<linearGradient id="paint0_linear_1_9" x1="8.39999" y1="7.20001" x2="36.4" y2="34.8" gradientUnits="userSpaceOnUse">
<stop stop-color="#DA0F13"/>
<stop offset="1" stop-color="#F86161" stop-opacity="0.75"/>
</linearGradient>
</defs>
</svg>
